<?xml version="1.0" encoding="utf-8"?>
<!-- Generator: Adobe Illustrator 17.1.0, SVG Export Plug-In . SVG Version: 6.00 Build 0)  -->
<!DOCTYPE svg PUBLIC "-//W3C//DTD SVG 1.1//EN" "http://www.w3.org/Graphics/SVG/1.1/DTD/svg11.dtd">
<svg version="1.1" id="Layer_1" xmlns="http://www.w3.org/2000/svg" xmlns:xlink="http://www.w3.org/1999/xlink" x="0px" y="0px"
	 viewBox="0 0 325.484 185.991" enable-background="new 0 0 325.484 185.991" xml:space="preserve">
<rect x="19.252" y="116.219" fill="#243E90" width="287.301" height="3.659"/>
<path fill="#243E90" d="M140.136,102.24c-4.983,0-6.976-2.795-6.976-8.77V39.96c0-8.071,1.693-11.262,8.968-11.262h5.183
	c7.276,0,8.171,2.889,10.165,10.662l11.761,44.842L180.59,40.26c2.097-8.077,3.491-11.562,9.769-11.562h5.879
	c7.176,0,8.968,3.191,8.968,11.262v53.51c0,5.879-2.093,8.77-6.874,8.77c-4.884,0-6.977-2.691-6.977-8.77V43.544l-12.357,48.829
	c-1.794,6.976-4.182,9.866-9.761,9.866c-5.384,0-8.074-2.991-9.868-9.866l-12.354-48.829V93.47
	C147.015,99.445,144.918,102.24,140.136,102.24z"/>
<path fill="#243E90" d="M218.223,102.24c-4.98,0-6.972-2.795-6.972-8.77V39.96c0-8.071,1.692-11.262,8.971-11.262h5.178
	c7.274,0,8.174,2.889,10.167,10.662l11.754,44.842L258.68,40.26c2.093-8.077,3.49-11.562,9.77-11.562h5.878
	c7.174,0,8.967,3.191,8.967,11.262v53.51c0,5.879-2.088,8.77-6.875,8.77c-4.885,0-6.973-2.691-6.973-8.77V43.544l-12.358,48.829
	c-1.794,6.976-4.185,9.866-9.768,9.866c-5.379,0-8.069-2.991-9.865-9.866l-12.354-48.829V93.47
	C225.102,99.445,223.009,102.24,218.223,102.24z"/>
<path fill="#243E90" d="M60.962,74.835c-3.685,0-6.276-2.494-6.276-6.377c0-3.689,2.394-5.882,6.276-5.882H76.81
	c5.978,0,8.567,1.5,8.567,6.677v27.403c0,4.384-1.494,6.483-5.18,6.483c-2.889,0-4.685-1.7-5.383-4.888l-1.093-5.382
	c-5.381,7.176-11.958,10.463-21.026,10.463c-19.928,0-33.681-14.944-33.681-37.867c0-23.114,13.549-37.666,34.078-37.666
	c6.679,0,12.555,1.298,17.639,3.89c7.376,3.787,11.161,8.765,11.161,13.45c0,4.187-2.99,7.179-6.478,7.179
	c-3.786,0-5.681-1.8-8.27-4.989c-3.687-4.682-7.372-6.875-13.453-6.875c-11.659,0-19.329,9.068-19.329,24.915
	c0,15.846,7.869,24.909,20.026,24.909c9.268,0,16.045-5.776,17.54-15.443H60.962z"/>
<path fill="#243E90" d="M103.06,66.057c-4.945,5.037-10.398,7.696-12.173,5.949c-1.785-1.749,0.784-7.245,5.727-12.278
	c4.943-5.03,10.394-7.696,12.173-5.949C110.567,55.528,108.001,61.023,103.06,66.057z"/>
<path fill="#243E90" d="M122.08,66.057c-4.945,5.037-10.398,7.696-12.173,5.949c-1.78-1.749,0.786-7.245,5.727-12.278
	c4.943-5.03,10.395-7.696,12.174-5.949C129.587,55.528,127.018,61.023,122.08,66.057z"/>
<path fill="#243E90" d="M300.424,66.441c-4.939,5.036-10.393,7.695-12.168,5.948c-1.784-1.743,0.784-7.245,5.723-12.274
	c4.942-5.031,10.397-7.7,12.177-5.953C307.931,55.911,305.368,61.408,300.424,66.441z"/>
<path fill="#243E90" d="M48.4,148.462c0.042,1.191,0.083,2.096,0.083,2.753c0,8.339-5.013,13.063-13.558,13.063
	c-4.807,0-8.546-1.396-11.381-4.271c-2.793-2.836-4.314-6.779-4.314-11.134c0-4.438,1.521-8.217,4.479-11.095
	c2.876-2.793,6.82-4.313,11.216-4.313c4.643,0,8.258,1.684,11.093,5.136l-3.492,2.629c-1.972-2.302-4.437-3.411-7.519-3.411
	c-6.286,0-10.806,4.396-10.806,11.012c0,6.697,4.479,11.176,10.847,11.176c5.505,0,8.792-2.754,8.792-7.107c0-0.125,0-0.289,0-0.412
	h-7.067v-4.025H48.4z"/>
<path fill="#243E90" d="M80.487,146.654v-8.422h0.863c4.273,0,6.286,0.782,6.286,4.396c0,3.533-2.095,4.025-6.286,4.025H80.487z
	 M80.199,150.352h0.534l9.778,13.147h5.382l-10.107-13.354c4.437-0.533,6.738-3.205,6.738-7.93c0-2.751-1.068-5.052-2.835-6.449
	c-1.808-1.397-4.149-1.644-7.313-1.644h-6.656v29.376h4.478V150.352z"/>
<path fill="#243E90" d="M127.159,151.955l2.999-6.697c0.329-0.78,0.698-1.85,1.068-3.328c0.41,1.479,0.78,2.548,1.109,3.328
	l2.999,6.697H127.159z M140.347,163.499h5.054l-14.215-30.526l-14.216,30.526h5.012l3.41-7.559h11.627L140.347,163.499z"/>
<path fill="#243E90" d="M193.798,144.97c-0.246,1.396-0.698,2.712-1.355,4.066l-7.684,15.654l-7.683-15.982
	c-0.575-1.191-1.068-2.423-1.438-3.738c-0.041,1.396-0.247,2.753-0.534,4.066l-3.164,14.463h-4.395l6.943-30.526l8.669,18.446
	c0.246,0.535,0.78,1.85,1.602,3.987c0.575-1.646,1.233-2.959,1.685-3.987l8.464-18.446l7.107,30.526h-4.436l-3.246-14.504
	C194.209,148.462,194.086,147.148,193.798,144.97z"/>
<path fill="#243E90" d="M251.481,144.97c-0.246,1.396-0.698,2.712-1.355,4.066l-7.683,15.654l-7.684-15.982
	c-0.575-1.191-1.068-2.423-1.437-3.738c-0.041,1.396-0.247,2.753-0.534,4.066l-3.164,14.463h-4.395l6.943-30.526l8.669,18.446
	c0.246,0.535,0.78,1.85,1.603,3.987c0.575-1.646,1.232-2.959,1.685-3.987l8.463-18.446l7.108,30.526h-4.437l-3.246-14.504
	C251.892,148.462,251.769,147.148,251.481,144.97z"/>
<path fill="#243E90" d="M292.073,150.065l-9.901-15.942h5.012l6.163,9.983c0.123,0.205,0.575,0.987,1.232,2.342
	c0.37-0.945,0.78-1.767,1.232-2.465l6.327-9.86h4.767l-10.108,15.942v13.434h-4.725V150.065z"/>
</svg>
